<?xml version="1.0" encoding="UTF-8"?>
<svg width="1000px" height="300px" viewBox="0 0 1000 300" xmlns="http://www.w3.org/2000/svg" xmlns:xlink="http://www.w3.org/1999/xlink" version="1.1">
 <!-- Generated by Pixelmator Pro 1.6.4 -->
 <g id="built-with-Skynet">
  <g id="Wordmark">
   <defs>
    <text id="string" transform="matrix(1.0 0.0 0.0 1.0 399.81575770688005 54.75)" x="1.7024999999999864" y="160.0" text-decoration="none" font-family="Sora-SemiBold, Sora" fill="#0d0d0d" font-size="165">Skynet</text>
   </defs>
   <use id="Skynet" xlink:href="#string"/>
   <path id="Skynet-Logo" d="M5.398 91.908 L279.805 236.84 C287.002 240.605 288.314 250.352 282.37 255.886 L282.23 255.886 C273.609 263.695 263.97 270.302 253.575 275.524 164.9 320.085 61.242 251.944 66.989 152.869 L103.682 178.21 C114.664 236.045 175.766 269.419 230.36 247.4 Z M116.341 132.331 L300.647 205.182 C305.99 207.28 308.873 213.085 307.314 218.61 L307.314 218.843 C305.342 225.741 297.476 229.026 291.182 225.58 Z M184.202 36.915 C218.961 33.931 262.391 47.009 288.268 80.369 310.065 108.53 314.564 142.938 313.025 178.466 L313.025 178.373 C312.412 185.91 304.694 190.71 297.663 187.931 L172.383 138.416 288.687 169.608 C290.683 149.119 285.869 128.543 274.989 111.066 236.909 49.9 146.893 52.893 112.96 116.456 111.016 120.118 109.312 123.902 107.855 127.786 L76.663 111.164 C77.549 109.858 78.482 108.623 79.414 107.364 80.906 104.264 82.515 101.116 84.286 98.039 104.964 62.232 139.583 41.158 176.09 37.777 178.794 37.544 181.498 37.148 184.202 36.915 Z" fill="#00c65e" fill-opacity="1" stroke="none"/>
  </g>
  <defs>
   <text id="string-1" transform="matrix(1.0 0.0 0.0 1.0 409.0 7.0)" x="1.3394999999999868" y="81.0" text-decoration="none" font-family="Sora-Regular, Sora" fill="#0d0d0d" font-size="83">built with</text>
  </defs>
  <use id="built-with" xlink:href="#string-1"/>
 </g>
</svg>
